<svg width="117" height="33" viewBox="0 0 117 33" fill="none" xmlns="http://www.w3.org/2000/svg">
<path fill-rule="evenodd" clip-rule="evenodd" d="M58.1153 7.458H61.8827L58.337 17.7056H55.3456L53.616 11.5698L51.9751 17.7056H48.9837L45.3271 7.458H49.0968L50.6491 13.1098L52.2235 7.458H54.9931L56.5675 13.1098L58.1153 7.458ZM70.7681 8.558V7.458H74.2916V17.7056H70.7681V16.5396C70.1184 17.4482 69.1649 17.9036 67.9098 17.9036C66.5638 17.9036 65.3907 17.413 64.3862 16.4296C63.3817 15.4484 62.8784 14.157 62.8784 12.5598C62.8784 10.9626 63.3817 9.669 64.3862 8.679C65.3907 7.689 66.566 7.194 67.9098 7.194C68.4575 7.194 68.9919 7.3106 69.5175 7.546C70.0408 7.7792 70.4577 8.118 70.7681 8.558ZM67.0893 11.0858C66.6747 11.4972 66.4684 11.9944 66.4684 12.5818C66.4684 13.1692 66.6791 13.6708 67.1004 14.0888C67.5217 14.5068 68.0273 14.7158 68.6194 14.7158C69.2114 14.7158 69.717 14.5068 70.1383 14.0888C70.5597 13.6708 70.7703 13.1692 70.7703 12.5818C70.7703 11.9944 70.5597 11.4928 70.1383 11.0748C69.717 10.6568 69.2114 10.4478 68.6194 10.4478C68.0273 10.4478 67.5173 10.6612 67.0893 11.0858ZM77.2165 17.7056V3.784H80.74V17.7056H77.2165ZM87.1906 12.3178V17.7056H83.6649V7.458H87.1884V9.064C87.3503 8.4766 87.7383 8.019 88.3526 7.689C88.9668 7.359 89.5456 7.194 90.0933 7.194C91.4526 7.194 92.4793 7.6296 93.1733 8.503C93.8674 9.3764 94.2156 10.626 94.2156 12.2518V17.7056H90.692V12.3618C90.692 11.7458 90.5213 11.2948 90.182 11.0088C89.8427 10.7228 89.4502 10.5798 89.0067 10.5798C88.5344 10.5798 88.1131 10.7184 87.7428 10.9978C87.3747 11.2772 87.1906 11.7172 87.1906 12.3178ZM103.901 12.8458V7.458H107.425V17.7056H103.901V16.0996C103.74 16.687 103.354 17.1336 102.748 17.4416C102.143 17.7496 101.56 17.9036 100.997 17.9036C99.6373 17.9036 98.6106 17.468 97.9143 16.5946C97.2202 15.7234 96.8721 14.4716 96.8721 12.8458V7.458H100.396V12.7358C100.396 13.3518 100.566 13.8028 100.906 14.0888C101.245 14.3748 101.637 14.5178 102.081 14.5178C102.569 14.5178 102.992 14.3902 103.356 14.1328C103.72 13.8754 103.901 13.4464 103.901 12.8458ZM114.827 3.784V7.4558H117V10.0298H114.827V17.7056H111.348V10.0298H109.463V7.4558H111.348V3.784H114.827Z" fill="#E7E7E7"/>
<path fill-rule="evenodd" clip-rule="evenodd" d="M48.2764 22.3718H48.9438L50.4606 26.0524L51.9662 22.3718H52.6426L50.7932 26.7894H50.8021H50.1146L48.2764 22.3718ZM55.645 26.884C55.0019 26.884 54.4675 26.6706 54.0373 26.2416C53.6094 25.8126 53.3943 25.2538 53.3943 24.5674C53.3943 23.881 53.6072 23.3266 54.0329 22.9064C54.4587 22.4862 54.9953 22.2772 55.645 22.2772C56.2881 22.2772 56.8114 22.4862 57.2172 22.902C57.623 23.3178 57.827 23.8722 57.827 24.5674C57.827 24.706 57.8225 24.8028 57.8181 24.86H54.0418C54.0994 25.2824 54.2746 25.6212 54.5717 25.8764C54.8667 26.1316 55.2259 26.2592 55.645 26.2592C55.9444 26.2592 56.2149 26.191 56.461 26.0568C56.7049 25.9204 56.8979 25.7334 57.0376 25.4936C57.1063 25.5134 57.2172 25.5376 57.3658 25.5684C57.5143 25.5992 57.6185 25.6212 57.6762 25.6344C57.4988 26.026 57.2283 26.3318 56.8668 26.5518C56.5009 26.774 56.0951 26.884 55.645 26.884ZM54.0418 24.2748H57.1795C57.1152 23.8524 56.9466 23.518 56.6695 23.2716C56.3923 23.0252 56.0508 22.902 55.645 22.902C55.2259 22.902 54.8689 23.0274 54.5762 23.276C54.2835 23.5246 54.1061 23.8568 54.0418 24.2748ZM59.8249 24.3782V26.7894H59.1863V22.3718H59.8249V23.1C59.9513 22.8294 60.1598 22.6248 60.4436 22.4862C60.7296 22.3476 61.0157 22.2772 61.3018 22.2772C61.8428 22.2772 62.2641 22.4488 62.5701 22.792C62.8761 23.1352 63.0247 23.6104 63.0181 24.2154V26.7894H62.3794V24.2154C62.3794 23.8062 62.2863 23.485 62.0978 23.2496C61.9093 23.0164 61.6455 22.8998 61.3018 22.8998C60.9004 22.8998 60.5545 23.0208 60.2618 23.2628C59.9713 23.5092 59.8249 23.8788 59.8249 24.3782ZM65.6192 26.7894H64.9805V22.9394H64.18V22.3718H64.9805V20.7174H65.6192V22.3718H66.5638V22.9394H65.6192V26.7894ZM70.9344 24.7852V22.374H71.573V26.7916H70.9344V26.0634C70.808 26.334 70.6018 26.5386 70.3157 26.6772C70.0297 26.8158 69.7436 26.8862 69.4576 26.8862C68.9165 26.8862 68.4952 26.7146 68.1892 26.3714C67.8832 26.0282 67.7346 25.553 67.7413 24.948V22.374H68.3799V24.948C68.3799 25.3572 68.473 25.6806 68.6615 25.9138C68.85 26.147 69.1139 26.2636 69.4576 26.2636C69.8589 26.2636 70.2049 26.1426 70.4976 25.9006C70.7903 25.6542 70.9344 25.2824 70.9344 24.7852ZM75.937 22.4488L75.8616 23.0626C75.6576 22.9614 75.4425 22.9108 75.2141 22.9108C74.7884 22.9108 74.469 23.1242 74.2562 23.5488C74.0433 23.9734 73.9369 24.5058 73.9369 25.1438V26.7894H73.2982V22.3718H73.9369V23.375C74.1475 22.6424 74.5733 22.2772 75.2141 22.2772C75.3605 22.2772 75.5068 22.297 75.6532 22.3344C75.7973 22.3718 75.8927 22.4114 75.937 22.4488ZM78.8796 26.884C78.2365 26.884 77.7021 26.6706 77.2719 26.2416C76.8439 25.8126 76.6289 25.2538 76.6289 24.5674C76.6289 23.881 76.8417 23.3266 77.2675 22.9064C77.6932 22.4862 78.2299 22.2772 78.8796 22.2772C79.5204 22.2772 80.046 22.4862 80.4518 22.902C80.8576 23.3178 81.0616 23.8722 81.0616 24.5674C81.0616 24.706 81.0593 24.8028 81.0527 24.86H77.2786C77.3362 25.2824 77.5114 25.6212 77.8085 25.8764C78.1035 26.1316 78.4627 26.2592 78.8818 26.2592C79.1812 26.2592 79.4517 26.191 79.6978 26.0568C79.9417 25.9204 80.1347 25.7334 80.2744 25.4936C80.3431 25.5134 80.454 25.5376 80.6025 25.5684C80.7511 25.5992 80.8553 25.6212 80.913 25.6344C80.7356 26.026 80.4651 26.3318 80.1036 26.5518C79.7377 26.774 79.3319 26.884 78.8796 26.884ZM77.2786 24.2748H80.4163C80.352 23.8524 80.1834 23.518 79.9063 23.2716C79.6291 23.0252 79.2876 22.902 78.8818 22.902C78.4627 22.902 78.1057 23.0274 77.813 23.276C77.5203 23.5246 77.3407 23.8568 77.2786 24.2748ZM84.6827 25.5222H85.2459C85.379 26.0326 85.7293 26.2878 86.2948 26.2878C86.5808 26.2878 86.8092 26.224 86.9822 26.0942C87.1529 25.9644 87.2394 25.7972 87.2394 25.5882C87.2394 25.2362 87.0265 25.0074 86.6008 24.9062L85.9799 24.7632C85.8136 24.7258 85.6717 24.6796 85.5519 24.6268C85.43 24.574 85.3058 24.4948 85.175 24.3892C85.0441 24.2858 84.9532 24.1428 84.8978 23.9646C84.8445 23.7842 84.829 23.573 84.8556 23.3266C84.9 23.0186 85.0596 22.7656 85.3368 22.5698C85.614 22.374 85.9355 22.2772 86.3036 22.2772C86.6717 22.2772 86.9844 22.3718 87.2372 22.561C87.4922 22.7502 87.6474 23.0362 87.7051 23.4212H87.0864C87.0487 23.2584 86.9578 23.1264 86.8137 23.0296C86.6695 22.9328 86.501 22.8822 86.3036 22.8822C86.0863 22.8822 85.9023 22.9328 85.7448 23.034C85.5896 23.1352 85.4987 23.265 85.4721 23.4212C85.4011 23.793 85.6207 24.0394 86.1307 24.1582L86.7405 24.299C87.49 24.475 87.8647 24.904 87.8647 25.586C87.8647 25.9644 87.7095 26.2746 87.3969 26.5188C87.0864 26.7608 86.6984 26.8818 86.2327 26.8818C85.8313 26.8818 85.4787 26.7564 85.1705 26.5078C84.8645 26.2614 84.7004 25.9314 84.6827 25.5222ZM90.1886 26.7894H89.55V22.9394H88.7495V22.3718H89.55V20.7174H90.1886V22.3718H91.1333V22.9394H90.1886V26.7894ZM95.5061 24.7852V22.374H96.1447V26.7916H95.5061V26.0634C95.3797 26.334 95.1713 26.5386 94.8874 26.6772C94.6014 26.8158 94.3153 26.8862 94.0293 26.8862C93.4882 26.8862 93.0669 26.7146 92.7609 26.3714C92.4549 26.0282 92.3063 25.553 92.313 24.948V22.374H92.9516V24.948C92.9516 25.3572 93.0447 25.6806 93.2332 25.9138C93.4217 26.147 93.6856 26.2636 94.0293 26.2636C94.4284 26.2636 94.7766 26.1426 95.0693 25.9006C95.3598 25.6542 95.5061 25.2824 95.5061 24.7852ZM102.156 19.9804V26.7916H101.518V26.0348C101.358 26.3054 101.123 26.5166 100.813 26.664C100.502 26.8114 100.176 26.8862 99.839 26.8862C99.1915 26.8862 98.6483 26.6728 98.2136 26.2438C97.779 25.8148 97.5595 25.256 97.5595 24.5696C97.5595 23.8832 97.7768 23.3288 98.2136 22.9086C98.6483 22.4884 99.1915 22.2794 99.839 22.2794C100.183 22.2794 100.509 22.3498 100.817 22.4928C101.125 22.6336 101.358 22.8382 101.518 23.1022V19.9804H102.156ZM98.2003 24.5674C98.2003 25.0536 98.3578 25.454 98.6726 25.773C98.9875 26.092 99.3756 26.2504 99.8413 26.2504C100.318 26.2504 100.717 26.1008 101.039 25.8016C101.36 25.5024 101.52 25.091 101.52 24.5674C101.52 24.057 101.349 23.6522 101.01 23.3574C100.671 23.0604 100.28 22.913 99.8413 22.913C99.3712 22.913 98.9809 23.0648 98.6682 23.3662C98.3556 23.6676 98.2003 24.068 98.2003 24.5674ZM104.509 26.7894V22.3718H103.879V26.7894H104.509ZM103.862 21.0584C103.766 20.9704 103.72 20.8604 103.72 20.7262C103.72 20.5942 103.766 20.4842 103.862 20.4006C103.957 20.3148 104.072 20.273 104.205 20.273C104.338 20.273 104.454 20.3148 104.549 20.4006C104.644 20.4864 104.693 20.5942 104.693 20.7262C104.693 20.8582 104.646 20.9682 104.549 21.0518C104.454 21.1376 104.338 21.1794 104.205 21.1794C104.07 21.1816 103.955 21.1398 103.862 21.0584ZM109.902 26.2416C109.45 26.6706 108.9 26.884 108.252 26.884C107.605 26.884 107.055 26.6706 106.602 26.2416C106.152 25.8126 105.926 25.2538 105.926 24.5674C105.926 23.8854 106.15 23.3354 106.598 22.913C107.046 22.4906 107.598 22.2794 108.252 22.2794C108.906 22.2794 109.458 22.4906 109.906 22.913C110.354 23.3354 110.578 23.8876 110.578 24.5674C110.578 25.2538 110.352 25.8126 109.902 26.2416ZM107.041 25.7884C107.372 26.103 107.775 26.2614 108.252 26.2614C108.729 26.2614 109.13 26.103 109.458 25.7884C109.787 25.4738 109.948 25.0668 109.948 24.5674C109.948 24.068 109.784 23.6676 109.458 23.3618C109.13 23.056 108.729 22.902 108.252 22.902C107.775 22.902 107.374 23.056 107.046 23.3618C106.718 23.6676 106.556 24.0702 106.556 24.5674C106.556 25.0646 106.718 25.4716 107.041 25.7884ZM111.643 25.5222H112.206C112.339 26.0326 112.689 26.2878 113.255 26.2878C113.541 26.2878 113.769 26.224 113.942 26.0942C114.113 25.9644 114.199 25.7972 114.199 25.5882C114.199 25.2362 113.986 25.0074 113.561 24.9062L112.942 24.7632C112.776 24.7258 112.634 24.6796 112.514 24.6268C112.392 24.574 112.268 24.4948 112.137 24.3892C112.006 24.2858 111.915 24.1428 111.86 23.9646C111.807 23.7842 111.791 23.573 111.818 23.3266C111.862 23.0186 112.022 22.7656 112.299 22.5698C112.576 22.374 112.898 22.2772 113.266 22.2772C113.634 22.2772 113.947 22.3718 114.199 22.561C114.454 22.7502 114.61 23.0362 114.667 23.4212H114.049C114.011 23.2584 113.92 23.1264 113.776 23.0296C113.632 22.9328 113.463 22.8822 113.266 22.8822C113.051 22.8822 112.864 22.9328 112.707 23.034C112.552 23.1352 112.461 23.265 112.436 23.4212C112.365 23.793 112.585 24.0394 113.095 24.1582L113.705 24.299C114.454 24.475 114.829 24.904 114.829 25.586C114.829 25.9644 114.674 26.2746 114.361 26.5188C114.051 26.7608 113.663 26.8818 113.197 26.8818C112.796 26.8818 112.443 26.7564 112.135 26.5078C111.824 26.2614 111.663 25.9314 111.643 25.5222Z" fill="#E7E7E7"/>
<path fill-rule="evenodd" clip-rule="evenodd" d="M0.0753929 14.9358H2.15981L0.188484 14.014C0.476754 12.1176 1.09321 10.3268 1.97576 8.6988L5.10016 10.1618L2.82727 7.2996C3.88943 5.7332 5.21547 4.3582 6.74109 3.2362L8.94303 6.0082L8.09817 2.3364C9.7014 1.3838 11.482 0.690801 13.3757 0.316801L14.5953 5.6122L15.8881 0.0176004C16.1343 0.0066004 16.3826 0 16.631 0C18.3185 0 19.9461 0.250801 21.4806 0.712801L20.1301 6.556L24.0462 1.7292C25.7403 2.5674 27.2704 3.685 28.5742 5.0182L24.4764 10.0694L30.4302 7.2886C31.468 8.8154 32.2552 10.5248 32.732 12.3574L27.2149 14.9336H33.1866C33.2353 15.4484 33.2619 15.972 33.2619 16.5C33.2619 17.8794 33.0912 19.217 32.7697 20.4974H18.0235L18.4559 22.3696H31.335H32.1776C31.7164 23.573 31.1177 24.7104 30.3992 25.7598H24.9198L29.1219 27.3966C28.2793 28.3448 27.3302 29.1984 26.2902 29.9354L22.3343 28.3954L24.7247 30.9188C23.6714 31.5018 22.5449 31.9748 21.3675 32.3224L19.0724 29.898L19.7221 32.7162C18.722 32.9032 17.6909 33 16.6354 33C16.5179 33 16.4004 32.9978 16.2828 32.9956L15.622 30.129L14.6774 32.8856C13.5199 32.7514 12.3978 32.4984 11.3246 32.1398L12.1406 29.755L10.0451 31.6514C8.93638 31.1762 7.88973 30.5844 6.9207 29.8914L8.66806 28.3118L6.02928 29.2094C5.06025 28.413 4.18435 27.5066 3.41711 26.5144L5.63679 25.7598H2.86496C2.1465 24.7104 1.54779 23.573 1.08434 22.3696H12.7105L12.2803 20.4974H0.492277C0.170745 19.2214 0 17.8816 0 16.5022C0 15.9742 0.0266087 15.4528 0.0753929 14.9358Z" fill="#E7E7E7"/>
</svg>
