<svg width="70" height="14" viewBox="0 0 70 14" fill="none" xmlns="http://www.w3.org/2000/svg">
<path d="M63.1314 9.40699C58.1948 10.0205 53.5964 10.5658 48.998 11.1793C48.6599 11.2475 48.3894 11.6565 47.6455 12.27C49.8095 12.5426 51.5001 12.8835 53.1907 12.9516C57.6538 13.088 62.0494 13.088 66.5125 13.088C67.0535 13.088 67.5945 13.1561 68.1355 13.0198C69.8937 12.679 70.5024 11.5201 69.5556 9.95232C69.0823 9.20249 68.5413 8.52082 67.9326 7.90732C65.6334 5.58966 63.2666 3.34016 60.8998 1.09067C60.494 0.681669 59.8854 0.477166 59.0739 0C58.9387 3.47649 62.3875 4.43082 63.1314 7.15749C62.5227 7.02115 61.9818 6.95299 61.5084 6.81665C43.25 1.77233 25.0592 2.31767 6.93602 7.22566C5.04256 7.70282 3.21672 8.45265 1.39088 9.13431C0.444145 9.47514 -0.36734 10.225 0.173645 11.3838C0.647011 12.5426 1.59374 12.5426 2.67573 12.0655C14.7804 6.61216 27.6289 5.99866 40.6127 6.20316C47.375 6.27132 54.0022 7.02116 60.5617 8.58899C61.3731 8.79349 62.1846 9.06616 63.1314 9.40699Z" fill="#025C51"/>
</svg>
